<?xml version="1.0" standalone="no"?>
<!DOCTYPE svg PUBLIC "-//W3C//DTD SVG 20010904//EN"
 "http://www.w3.org/TR/2001/REC-SVG-20010904/DTD/svg10.dtd">
<svg version="1.0" xmlns="http://www.w3.org/2000/svg"
 width="667.000000pt" height="667.000000pt" viewBox="0 0 667.000000 667.000000"
 preserveAspectRatio="xMidYMid meet">

<g transform="translate(0.000000,667.000000) scale(0.100000,-0.100000)"
fill="#000000" stroke="none">
<path d="M590 2100 l0 -240 55 0 55 0 0 90 0 90 90 0 90 0 0 55 0 55 -90 0
-90 0 0 40 0 40 90 0 90 0 0 55 0 55 -145 0 -145 0 0 -240z"/>
<path d="M1104 2321 c-204 -93 -183 -391 33 -457 151 -47 307 74 306 236 0 74
-26 132 -79 178 -71 63 -178 80 -260 43z m193 -135 c27 -29 33 -44 33 -81 0
-86 -50 -138 -133 -137 -46 1 -81 22 -107 65 -80 130 104 266 207 153z"/>
<path d="M1533 2103 l2 -238 53 -3 c44 -3 52 0 53 15 0 10 1 45 2 78 2 59 3
60 32 63 28 2 33 -3 73 -78 l43 -80 65 0 c36 0 63 3 61 8 -98 171 -99 173 -79
188 53 37 69 147 30 204 -46 67 -66 75 -208 78 l-129 4 2 -239z m243 102 c34
-52 -16 -93 -102 -83 -27 3 -29 6 -32 56 l-3 52 60 0 c54 0 62 -3 77 -25z"/>
<path d="M2180 2333 c0 -3 36 -73 80 -155 l80 -148 0 -85 0 -85 55 0 55 0 0
77 0 76 85 159 c47 87 85 161 85 163 0 3 -27 5 -60 5 l-59 0 -26 -45 c-14 -25
-37 -66 -51 -91 l-26 -46 -50 91 -49 91 -59 0 c-33 0 -60 -3 -60 -7z"/>
<path d="M2780 2327 c-58 -19 -126 -93 -145 -160 -65 -225 194 -404 380 -263
143 109 115 342 -49 417 -46 21 -131 23 -186 6z m149 -115 c37 -20 71 -73 71
-110 0 -72 -58 -132 -127 -132 -63 0 -101 23 -125 77 -29 66 -10 124 55 163
40 25 82 25 126 2z"/>
<path d="M3190 2178 c0 -90 5 -181 11 -203 32 -113 181 -156 296 -86 60 37 68
65 71 269 l4 182 -56 0 -56 0 0 -163 c0 -178 -6 -200 -56 -210 -35 -6 -82 10
-94 33 -6 10 -10 91 -10 179 l0 161 -55 0 -55 0 0 -162z"/>
<path d="M3680 2100 l0 -240 55 0 55 0 0 80 0 80 29 0 c27 0 34 -8 73 -80 l43
-80 63 0 c34 0 62 2 62 4 0 2 -20 40 -45 85 -25 45 -45 84 -45 87 0 3 11 19
25 36 55 65 53 159 -6 217 -40 40 -83 51 -206 51 l-103 0 0 -240z m234 114
c23 -22 20 -60 -6 -78 -13 -9 -43 -16 -70 -16 l-48 0 0 55 0 55 54 0 c36 0 60
-5 70 -16z"/>
<path d="M4360 2100 l0 -240 55 0 55 0 0 80 0 80 59 0 c64 0 107 22 145 73 31
42 29 130 -3 176 -38 53 -89 71 -208 71 l-103 0 0 -240z m218 118 c7 -7 12
-24 12 -39 0 -36 -33 -59 -82 -59 l-38 0 0 55 0 55 48 0 c26 0 53 -5 60 -12z"/>
<path d="M4780 2100 l0 -240 150 0 150 0 0 55 0 55 -95 0 -95 0 0 185 0 185
-55 0 -55 0 0 -240z"/>
<path d="M5315 2328 c-63 -170 -165 -454 -165 -460 0 -4 25 -8 55 -8 l56 0 19
45 20 46 81 -3 82 -3 16 -42 15 -43 58 0 c32 0 58 2 58 4 0 2 -38 109 -85 237
-47 128 -85 234 -85 236 0 2 -27 3 -60 3 -39 0 -62 -4 -65 -12z m88 -215 c9
-27 17 -51 17 -55 0 -5 -18 -8 -40 -8 -25 0 -40 5 -40 12 0 19 32 98 39 98 4
0 15 -21 24 -47z"/>
<path d="M5690 2100 l0 -240 55 0 54 0 3 136 3 135 85 -133 85 -133 48 -3 47
-3 0 240 0 241 -55 0 -55 0 0 -121 c0 -66 -4 -118 -9 -115 -5 3 -41 58 -81
121 l-72 115 -54 0 -54 0 0 -240z"/>
<path d="M1940 1573 c0 -5 12 -54 27 -110 26 -99 28 -103 55 -103 25 0 29 5
45 60 10 33 21 60 24 60 3 0 13 -27 22 -60 16 -55 19 -60 45 -60 28 0 30 3 55
99 33 121 33 121 3 121 -20 0 -25 -7 -36 -60 -7 -33 -16 -63 -20 -65 -4 -2
-15 25 -25 60 -16 60 -19 65 -45 65 -25 0 -28 -5 -45 -66 -19 -72 -25 -71 -45
14 -10 45 -15 52 -36 52 -13 0 -24 -3 -24 -7z"/>
<path d="M2280 1470 l0 -110 70 0 c68 0 70 1 70 25 0 23 -4 25 -45 25 -38 0
-45 3 -45 20 0 17 7 20 40 20 36 0 40 3 40 25 0 23 -4 25 -40 25 -29 0 -40 4
-40 15 0 11 12 15 45 15 41 0 45 2 45 25 0 24 -2 25 -70 25 l-70 0 0 -110z"/>
<path d="M2570 1470 l0 -110 25 0 c22 0 25 4 25 35 0 30 3 35 24 35 39 0 76
36 76 75 0 47 -37 75 -101 75 l-49 0 0 -110z m103 48 c7 -23 -4 -38 -29 -38
-19 0 -24 5 -24 25 0 20 5 25 24 25 13 0 26 -6 29 -12z"/>
<path d="M2760 1470 l0 -110 70 0 c68 0 70 1 70 25 0 23 -4 25 -45 25 l-45 0
0 85 c0 84 0 85 -25 85 l-25 0 0 -110z"/>
<path d="M3009 1553 c-20 -51 -69 -187 -69 -190 0 -2 12 -3 26 -3 17 0 28 6
31 20 4 16 14 20 48 20 34 0 44 -4 48 -20 3 -14 14 -20 32 -20 30 0 31 -9 -18
125 -30 80 -37 90 -60 93 -22 3 -29 -2 -38 -25z m51 -90 c0 -7 -7 -13 -15 -13
-16 0 -19 9 -9 35 5 13 8 14 15 3 5 -7 9 -19 9 -25z"/>
<path d="M3190 1470 l0 -110 25 0 c23 0 24 4 27 63 l3 62 40 -62 c30 -46 46
-63 63 -63 21 0 22 3 22 110 l0 110 -25 0 c-22 0 -24 -4 -27 -57 l-3 -58 -37
58 c-30 44 -43 57 -63 57 l-25 0 0 -110z"/>
<path d="M3620 1553 c5 -15 19 -65 31 -110 20 -78 23 -83 49 -83 24 0 29 6 45
60 10 33 22 57 26 53 4 -4 14 -30 22 -58 13 -45 17 -50 43 -50 27 0 29 4 51
80 38 138 38 135 10 135 -22 0 -27 -7 -37 -52 -20 -84 -26 -87 -44 -26 -9 31
-16 61 -16 67 0 6 -13 11 -29 11 -27 0 -30 -4 -46 -65 -10 -36 -21 -63 -24
-59 -3 3 -13 31 -21 62 -13 50 -18 57 -42 60 -26 3 -27 2 -18 -25z"/>
<path d="M3960 1470 l0 -111 68 3 c59 3 67 5 67 23 0 16 -8 21 -42 23 -35 3
-43 7 -43 23 0 16 7 19 41 19 36 0 40 2 37 23 -2 18 -10 23 -40 25 -54 5 -52
32 2 32 36 0 40 3 40 25 0 24 -2 25 -65 25 l-65 0 0 -110z"/>
<path d="M4272 1552 c-38 -35 -48 -79 -28 -125 36 -87 152 -97 199 -17 9 15
17 38 17 49 0 19 -6 21 -60 21 -57 0 -60 -1 -60 -25 0 -20 5 -25 26 -25 14 0
23 -4 19 -10 -3 -5 -22 -10 -40 -10 -59 0 -82 62 -39 105 17 17 65 20 80 5 7
-7 17 -5 30 5 19 15 19 15 -5 35 -36 31 -101 27 -139 -8z"/>
<path d="M4529 1552 c-45 -40 -52 -106 -15 -149 39 -47 86 -59 134 -36 111 54
78 213 -44 213 -34 0 -51 -6 -75 -28z m129 -54 c20 -42 -2 -82 -47 -86 -60 -6
-90 46 -55 96 24 34 84 28 102 -10z"/>
<path d="M3435 1398 c-7 -24 0 -78 10 -75 19 7 34 50 24 69 -11 21 -28 24 -34
6z"/>
</g>
</svg>
